<svg width="360" height="780" viewBox="0 0 360 780" fill="none" xmlns="http://www.w3.org/2000/svg">
  <rect width="360" height="780" rx="34" fill="#F8FAFC"/>
  <rect x="150" y="150" width="60" height="60" rx="18" fill="#071E63"/>
  <path d="M170 169h25c7 0 11 8 7 14l-5 7h-27v-21z" fill="#fff"/>
  <path d="M170 192h30c4 0 7 3 7 7v5h-37v-12z" fill="#8B5CF6"/>
  <rect x="188" y="199" width="18" height="10" rx="4" fill="#fff"/>
  <text x="180" y="278" text-anchor="middle" font-family="Arial, sans-serif" font-size="36" font-weight="800" fill="#071E63">escoply</text>
  <text x="180" y="312" text-anchor="middle" font-family="Arial, sans-serif" font-size="15" fill="#64748B">Do briefing à entrega, tudo no controle.</text>
  <rect x="22" y="358" width="316" height="292" rx="22" fill="#FFFFFF" stroke="#E2E8F0" stroke-width="1.5"/>
  <text x="42" y="406" font-family="Arial, sans-serif" font-size="24" font-weight="800" fill="#0F172A">Recuperar senha</text>
  <text x="42" y="438" font-family="Arial, sans-serif" font-size="14" fill="#64748B">Informe seu e-mail para receber as instruções</text>
  <text x="42" y="459" font-family="Arial, sans-serif" font-size="14" fill="#64748B">de redefinição de senha.</text>
  <text x="42" y="512" font-family="Arial, sans-serif" font-size="14" font-weight="700" fill="#0F172A">E-mail</text>
  <rect x="42" y="528" width="276" height="50" rx="15" fill="#F1F5F9" stroke="#E2E8F0"/>
  <text x="58" y="560" font-family="Arial, sans-serif" font-size="16" fill="#94A3B8">email@example.com</text>
  <rect x="42" y="602" width="276" height="50" rx="13" fill="#071E63"/>
  <text x="180" y="634" text-anchor="middle" font-family="Arial, sans-serif" font-size="16" font-weight="800" fill="#FFFFFF">Enviar link</text>
  <text x="166" y="696" text-anchor="end" font-family="Arial, sans-serif" font-size="14" fill="#64748B">Lembrou a senha?</text>
  <text x="172" y="696" font-family="Arial, sans-serif" font-size="14" font-weight="800" fill="#071E63">Entrar</text>
</svg>
