<svg width="360" height="780" viewBox="0 0 360 780" fill="none" xmlns="http://www.w3.org/2000/svg">
  <rect width="360" height="780" rx="34" fill="#F8FAFC"/>
  <rect x="150" y="132" width="60" height="60" rx="18" fill="#071E63"/>
  <path d="M170 151h25c7 0 11 8 7 14l-5 7h-27v-21z" fill="#fff"/>
  <path d="M170 174h30c4 0 7 3 7 7v5h-37v-12z" fill="#8B5CF6"/>
  <rect x="188" y="181" width="18" height="10" rx="4" fill="#fff"/>
  <path d="M194 186l3 2 5-5" stroke="#8B5CF6" stroke-width="2" stroke-linecap="round" stroke-linejoin="round"/>
  <text x="180" y="260" text-anchor="middle" font-family="Arial, sans-serif" font-size="36" font-weight="800" fill="#071E63">escoply</text>
  <text x="180" y="294" text-anchor="middle" font-family="Arial, sans-serif" font-size="15" fill="#64748B">Do briefing à entrega, tudo no controle.</text>
  <rect x="22" y="336" width="316" height="358" rx="22" fill="#FFFFFF" stroke="#E2E8F0" stroke-width="1.5"/>
  <text x="42" y="384" font-family="Arial, sans-serif" font-size="24" font-weight="800" fill="#0F172A">Entrar</text>
  <text x="42" y="432" font-family="Arial, sans-serif" font-size="14" font-weight="700" fill="#0F172A">E-mail</text>
  <rect x="42" y="448" width="276" height="50" rx="15" fill="#F1F5F9" stroke="#E2E8F0"/>
  <text x="58" y="480" font-family="Arial, sans-serif" font-size="16" fill="#94A3B8">email@example.com</text>
  <text x="42" y="540" font-family="Arial, sans-serif" font-size="14" font-weight="700" fill="#0F172A">Senha</text>
  <rect x="42" y="556" width="276" height="50" rx="15" fill="#F1F5F9" stroke="#E2E8F0"/>
  <text x="58" y="588" font-family="Arial, sans-serif" font-size="16" fill="#94A3B8">Sua senha</text>
  <text x="318" y="638" text-anchor="end" font-family="Arial, sans-serif" font-size="14" font-weight="800" fill="#071E63">Esqueci minha senha</text>
  <rect x="42" y="658" width="276" height="50" rx="13" fill="#071E63"/>
  <text x="180" y="690" text-anchor="middle" font-family="Arial, sans-serif" font-size="16" font-weight="800" fill="#FFFFFF">Entrar</text>
  <text x="158" y="742" text-anchor="end" font-family="Arial, sans-serif" font-size="14" fill="#64748B">Ainda não tem conta?</text>
  <text x="164" y="742" font-family="Arial, sans-serif" font-size="14" font-weight="800" fill="#071E63">Criar conta</text>
</svg>
