<svg width="360" height="920" viewBox="0 0 360 920" fill="none" xmlns="http://www.w3.org/2000/svg">
  <rect width="360" height="920" rx="34" fill="#F8FAFC"/>
  <rect x="150" y="58" width="60" height="60" rx="18" fill="#071E63"/>
  <path d="M170 77h25c7 0 11 8 7 14l-5 7h-27v-21z" fill="#fff"/>
  <path d="M170 100h30c4 0 7 3 7 7v5h-37v-12z" fill="#8B5CF6"/>
  <rect x="188" y="107" width="18" height="10" rx="4" fill="#fff"/>
  <text x="180" y="186" text-anchor="middle" font-family="Arial, sans-serif" font-size="36" font-weight="800" fill="#071E63">escoply</text>
  <text x="180" y="220" text-anchor="middle" font-family="Arial, sans-serif" font-size="15" fill="#64748B">Do briefing à entrega, tudo no controle.</text>
  <rect x="22" y="258" width="316" height="604" rx="22" fill="#FFFFFF" stroke="#E2E8F0" stroke-width="1.5"/>
  <text x="42" y="306" font-family="Arial, sans-serif" font-size="24" font-weight="800" fill="#0F172A">Criar conta</text>
  <text x="42" y="338" font-family="Arial, sans-serif" font-size="14" fill="#64748B">Comece organizando seus clientes, projetos,</text>
  <text x="42" y="359" font-family="Arial, sans-serif" font-size="14" fill="#64748B">prazos e entregas em um só lugar.</text>
  <text x="42" y="406" font-family="Arial, sans-serif" font-size="14" font-weight="700" fill="#0F172A">Nome</text>
  <rect x="42" y="422" width="276" height="50" rx="15" fill="#F1F5F9" stroke="#E2E8F0"/>
  <text x="58" y="454" font-family="Arial, sans-serif" font-size="16" fill="#94A3B8">Seu nome</text>
  <text x="42" y="512" font-family="Arial, sans-serif" font-size="14" font-weight="700" fill="#0F172A">E-mail</text>
  <rect x="42" y="528" width="276" height="50" rx="15" fill="#F1F5F9" stroke="#E2E8F0"/>
  <text x="58" y="560" font-family="Arial, sans-serif" font-size="16" fill="#94A3B8">email@example.com</text>
  <text x="42" y="618" font-family="Arial, sans-serif" font-size="14" font-weight="700" fill="#0F172A">Telefone</text>
  <rect x="42" y="634" width="276" height="50" rx="15" fill="#F1F5F9" stroke="#E2E8F0"/>
  <text x="58" y="666" font-family="Arial, sans-serif" font-size="16" fill="#94A3B8">(11) 99999-9999</text>
  <text x="42" y="724" font-family="Arial, sans-serif" font-size="14" font-weight="700" fill="#0F172A">Senha</text>
  <rect x="42" y="740" width="276" height="50" rx="15" fill="#F1F5F9" stroke="#E2E8F0"/>
  <text x="58" y="772" font-family="Arial, sans-serif" font-size="16" fill="#94A3B8">Crie uma senha forte</text>
  <rect x="42" y="812" width="18" height="18" rx="5" fill="#F1F5F9" stroke="#E2E8F0"/>
  <text x="68" y="826" font-family="Arial, sans-serif" font-size="13" fill="#64748B">Li e aceito os</text>
  <text x="153" y="826" font-family="Arial, sans-serif" font-size="13" font-weight="800" fill="#071E63">termos de uso</text>
</svg>
